<svg width="28" height="30" viewBox="0 0 28 30" fill="none" xmlns="http://www.w3.org/2000/svg">
<path d="M27.9262 13.1489C27.9375 13.4327 27.8922 13.7193 27.7792 13.9778C27.7792 13.9806 27.7764 13.9806 27.7764 13.9835C27.6888 14.183 27.5928 14.3516 27.5024 14.4865C27.5024 14.4865 27.0277 15.1918 26.1406 15.6526C24.0979 16.712 20.1172 15.8269 18.6028 15.4306C16.9811 15.0063 15.303 14.4471 13.6332 14.6213C13.3225 14.6551 12.8648 14.3937 12.797 14.922C12.7489 15.2845 13.0315 15.543 13.3366 15.7313C13.9581 16.1163 14.6955 15.9814 15.3708 16.1332C15.7239 16.2147 16.3059 16.1219 16.2296 16.6839C16.1731 17.1026 15.6759 17.0183 15.3425 17.0127C13.1445 16.993 10.9436 17.0605 8.75968 16.7682C8.415 16.7205 8.06467 16.6615 7.71999 16.6502C7.43182 16.639 7.06454 16.5968 6.95718 16.9368C6.81591 17.3865 7.19732 17.5157 7.53353 17.6225C8.35285 17.8866 9.19195 18.03 10.0423 18.1171H10.0706C10.452 18.1536 10.8362 18.1817 11.2233 18.2014L12.1811 18.2716L12.4466 18.2885C12.6274 18.3025 12.7631 18.4571 12.7489 18.6341L12.7461 18.651V18.6538L12.7433 18.6875C12.7292 18.8646 12.5709 18.9994 12.3901 18.9854L9.98867 18.8112C9.95476 18.8112 9.92086 18.8027 9.89261 18.7915C9.1976 18.7212 8.49694 18.6032 7.79628 18.4711C7.14082 18.3503 6.10395 17.6562 5.86663 18.6397C5.65474 19.5137 6.88372 19.539 7.53635 19.6739C8.31612 19.834 9.10719 19.9521 9.90108 20.0813H9.90391C9.91521 20.0813 9.92651 20.0785 9.93781 20.0813L12.5455 20.2696C12.732 20.2836 12.8676 20.4354 12.8535 20.6152L12.8506 20.6237C12.8393 20.7979 12.6783 20.9328 12.4975 20.9187L10.3107 20.7614L9.88413 20.7333C9.87848 20.7333 9.86718 20.7304 9.85305 20.7304C9.48012 20.6939 8.65798 20.6096 8.0449 20.4916C6.96283 20.2836 6.57294 19.9914 6.27064 20.1937C6.17741 20.2612 6.10395 20.3623 6.05875 20.5225C6.05875 20.5225 5.98812 20.7529 6.08135 21.0311C6.20849 21.4049 7.81605 21.8067 10.0169 22.0512L12.6246 22.2366C12.8083 22.2507 12.9467 22.4053 12.9326 22.5823L12.9269 22.5907C12.9184 22.7649 12.7546 22.9026 12.5766 22.8858C12.215 22.8605 11.9324 22.8858 11.4945 22.8577C11.164 22.8408 10.8419 22.779 10.5142 22.7397C9.63269 22.6272 9.4886 22.6244 9.00831 22.5458C8.86139 22.5205 8.71166 22.4952 8.56192 22.4727C7.8104 22.3547 7.68044 22.3547 7.54765 22.4221C7.40922 22.498 7.33011 22.6132 7.28773 22.6835C7.2623 22.7537 7.23405 22.8689 7.2623 22.9954C7.39226 23.5518 8.54779 23.7344 8.96593 23.7962C14.139 24.6055 18.0999 23.8468 20.4223 23.119C20.4308 23.1162 20.4364 23.1162 20.4449 23.1134C21.575 22.8549 22.6825 22.4727 23.773 21.9753C24.0753 21.8376 24.3042 21.7927 24.4963 21.7955C24.4963 21.7955 24.711 21.7983 24.9201 21.8657C25.0783 21.9163 25.7648 22.2085 26.7056 25.6706C26.7537 25.8476 26.83 26.1398 26.7254 26.4658C26.6068 26.8396 26.2903 27.1487 25.7733 27.3988C22.8153 28.8263 19.5295 29.54 15.9217 29.54C10.904 29.54 7.01651 28.2811 4.25342 25.7577C-0.346084 21.5566 0.0268487 15.6892 0.120082 15.0372C0.213315 14.3937 0.532568 13.9301 0.532568 13.9301C0.532568 13.9301 0.962005 13.3062 1.84913 12.9493C2.92555 12.5166 7.18602 12.6093 12.9947 13.3343C13.4072 13.3849 13.8225 13.3821 14.2322 13.3175C15.0487 13.191 16.6901 12.8819 19.6595 12.1344C19.9335 12.067 20.1963 11.9714 20.685 11.7017C21.0354 11.5106 21.558 11.2998 21.3405 10.7968C21.1314 10.3135 20.6907 10.7069 20.3686 10.7884C19.8064 10.9345 19.247 11.0835 18.6763 11.1593L18.665 11.1621L16.7862 11.5752C16.6195 11.6146 16.4557 11.5078 16.4218 11.3392C16.3822 11.1678 16.4867 11.002 16.6534 10.9654L17.8598 10.6985L17.9361 10.6816C18.7074 10.5074 19.4787 10.3247 20.2443 10.128C20.7811 9.98752 21.3066 9.78519 21.8095 9.56039C22.1853 9.39178 22.6514 9.15012 22.4734 8.63868C22.2531 8.01204 21.7756 8.38578 21.4196 8.51504C20.5636 8.82134 19.6934 9.07143 18.8091 9.25409C18.8006 9.2569 18.7978 9.25971 18.7893 9.25971C18.778 9.26814 18.7639 9.26814 18.7498 9.27376L16.5715 9.75709C16.4048 9.79363 16.2409 9.68684 16.2042 9.51543C16.1675 9.34963 16.272 9.18103 16.4387 9.1445L16.7551 9.07425H16.7608L18.4277 8.70331H18.4361C18.5322 8.68926 18.6198 8.67521 18.7158 8.65554C18.8854 8.62463 19.0521 8.58529 19.2131 8.52628C19.7358 8.34363 20.2782 8.21998 20.8037 8.03171C21.3914 7.82095 22.3576 7.67764 22.1203 6.90486C21.849 6.04217 21.0015 6.66039 20.4506 6.82337C19.8205 7.00884 19.1961 7.20273 18.5605 7.32919C18.5463 7.33762 18.535 7.33762 18.5209 7.34043L16.3426 7.82657C16.176 7.86591 16.0121 7.75632 15.9782 7.59052C15.9556 7.48936 15.9838 7.3882 16.046 7.31795C16.0827 7.27017 16.1392 7.23364 16.2042 7.21959C16.207 7.21959 16.207 7.21959 16.2099 7.21678L17.2298 6.99198L18.0039 6.82056L18.1112 6.79527C18.5492 6.69411 18.9871 6.59014 19.4193 6.47492C20.0126 6.31194 21.0495 6.24169 20.9167 5.55322C20.7444 4.69895 19.8177 5.29188 19.2611 5.36494C17.4275 5.59818 15.6024 5.95506 13.7745 6.22483C13.3564 6.28946 12.6755 6.54237 12.5992 5.94101C12.5314 5.37899 13.2575 5.44924 13.6813 5.34246C14.3028 5.18229 14.978 5.14014 15.3595 4.4882C15.4753 4.28868 15.6279 4.05264 15.4273 3.85593C15.3284 3.75758 15.0911 3.78287 14.9187 3.7913C14.0853 3.82783 13.2744 3.95147 12.4918 4.15942C10.9803 4.56407 9.49707 5.54198 8.83597 5.88762C6.70573 7.00322 4.56984 8.12163 2.25597 7.73946H2.25032C1.92541 7.68607 1.75025 7.32638 1.90846 7.03975C2.46504 6.02531 3.14875 5.12047 3.96242 4.31959C6.52491 1.79895 10.0084 0.540039 14.4102 0.540039C18.6678 0.540039 21.9903 1.7568 24.372 4.19033C26.5955 6.46649 27.7792 9.4508 27.9262 13.1489Z" fill="#15406C"/>
</svg>
