<svg width="1035" height="1035" viewBox="0 0 1035 1035" fill="none" xmlns="http://www.w3.org/2000/svg">
<rect width="1035" height="1035" rx="517.5" fill="white"/>
<path d="M449.1 582.9C441.5 582.1 434 581.1 426.5 579.9L449.1 582.9Z" fill="#15416C"/>
<path d="M808.5 478.3C808.7 484.3 807.8 490.3 805.4 495.7C805.4 495.8 805.3 495.8 805.3 495.8C803.5 500 801.5 503.5 799.6 506.4C799.6 506.4 789.7 521.2 771.1 530.9C728.4 553.2 645.2 534.6 613.6 526.2C579.7 517.3 544.6 505.5 509.7 509.2C503.2 509.9 493.6 504.4 492.2 515.5C491.2 523.1 497.1 528.5 503.5 532.5C516.5 540.6 531.9 537.8 546 540.9C553.4 542.6 565.5 540.7 563.9 552.5C562.7 561.3 552.3 559.5 545.4 559.4C499.5 559 453.5 560.4 407.8 554.3C400.6 553.3 393.3 552.1 386.1 551.8C380.1 551.6 372.4 550.7 370.2 557.8C367.2 567.2 375.2 570 382.2 572.2C399.3 577.7 416.9 580.8 434.6 582.6H435.2C443.2 583.4 451.2 584 459.3 584.4L479.3 585.9L484.8 586.3C488.6 586.6 491.4 589.8 491.1 593.6L491 594V594.1L490.9 594.8C490.6 598.5 487.3 601.4 483.5 601.1L433.3 597.4C432.6 597.4 431.9 597.2 431.3 597C416.8 595.5 402.1 593 387.5 590.3C373.8 587.8 352.1 573.2 347.2 593.8C342.8 612.2 368.5 612.7 382.1 615.5C398.4 618.9 414.9 621.3 431.5 624.1H431.6C431.8 624.1 432.1 624 432.3 624.1L486.8 628.1C490.7 628.4 493.5 631.6 493.2 635.4L493.1 635.6C492.9 639.3 489.5 642.1 485.7 641.8L440 638.5L431.1 637.9C431 637.9 430.7 637.8 430.5 637.8C422.7 637 405.5 635.3 392.7 632.8C370.1 628.4 361.9 622.3 355.6 626.5C353.7 627.9 352.1 630 351.2 633.4C351.2 633.4 349.7 638.2 351.7 644.1C354.4 652 388 660.4 433.9 665.5L488.4 669.4C492.2 669.7 495.1 672.9 494.8 676.7L494.7 676.9C494.5 680.6 491.1 683.5 487.4 683.1C479.8 682.6 473.9 683.1 464.8 682.5C457.9 682.1 451.2 680.8 444.3 680C425.9 677.6 422.9 677.6 412.8 675.9C409.7 675.4 406.6 674.8 403.5 674.4C387.8 671.9 385.1 671.9 382.3 673.3C379.4 674.9 377.8 677.3 376.9 678.8C376.4 680.3 375.8 682.7 376.4 685.4C379.1 697.1 403.3 700.9 412 702.2C520.1 719.2 602.9 703.3 651.4 688C651.6 687.9 651.7 687.9 651.9 687.9C675.5 682.5 698.7 674.4 721.4 664C727.7 661.1 732.5 660.2 736.5 660.2C736.5 660.2 741 660.3 745.4 661.7C748.7 662.8 763.1 668.9 782.7 741.6C783.7 745.3 785.3 751.5 783.1 758.3C780.6 766.2 774 772.6 763.2 777.9C701.4 807.9 632.7 822.9 557.3 822.9C452.4 822.9 371.2 796.4 313.5 743.4C217.7 654.9 225.5 531.6 227.4 517.9C229.3 504.4 236 494.6 236 494.6C236 494.6 245 481.5 263.5 474C286 464.9 375 466.9 496.4 482.1C505 483.2 513.7 483.1 522.3 481.7C539.4 479 573.7 472.5 635.7 456.8C641.4 455.4 646.9 453.4 657.1 447.7C664.4 443.7 675.3 439.3 670.8 428.7C666.4 418.5 657.2 426.8 650.5 428.5C638.8 431.6 627.1 434.7 615.1 436.3L614.9 436.4L575.6 445.1C572.1 445.9 568.7 443.7 568 440.1C567.2 436.5 569.4 433 572.8 432.2L598 426.6L599.6 426.2C615.7 422.5 631.8 418.7 647.8 414.6C659 411.6 670 407.4 680.5 402.7C688.4 399.2 698.1 394.1 694.4 383.3C689.8 370.1 679.8 378 672.4 380.7C654.5 387.1 636.3 392.4 617.8 396.2C617.6 396.3 617.6 396.3 617.4 396.3C617.2 396.5 616.9 396.5 616.6 396.6L571.2 407C567.7 407.8 564.3 405.5 563.5 401.9C562.7 398.4 564.9 394.9 568.4 394.1L575 392.6H575.1L609.9 384.8H610.1C612.1 384.5 613.9 384.2 615.9 383.8C619.4 383.2 622.9 382.3 626.3 381.1C637.2 377.3 648.6 374.7 659.5 370.7C671.8 366.3 692 363.3 687 347C681.3 328.9 663.6 341.9 652.1 345.3C638.9 349.2 625.9 353.3 612.6 355.9C612.3 356.1 612.1 356.1 611.8 356.1L566.3 366.3C562.8 367.1 559.4 364.8 558.7 361.3C558.2 359.2 558.8 357 560.1 355.6C560.9 354.6 562 353.8 563.4 353.5C563.5 353.5 563.5 353.5 563.5 353.4L584.8 348.7L601 345.1L603.2 344.6C612.4 342.5 621.5 340.3 630.5 337.9C642.9 334.5 664.6 333 661.8 318.5C658.2 300.6 638.8 313 627.2 314.5C588.9 319.4 550.7 326.9 512.5 332.6C503.8 334 489.5 339.3 487.9 326.6C486.5 314.8 501.7 316.3 510.5 314C523.5 310.6 537.6 309.7 545.6 296.1C548 291.9 551.2 286.9 547 282.8C544.9 280.7 540 281.3 536.4 281.4C519 282.2 502 284.8 485.7 289.1C454.1 297.6 423.1 318.1 409.3 325.4C364.8 348.8 320.1 372.3 271.8 364.3H271.7C264.9 363.2 261.2 355.6 264.6 349.6C276.2 328.3 290.5 309.3 307.5 292.4C361 239.4 433.8 213 525.8 213C614.8 213 684.2 238.6 734 289.7C780.7 337.9 805.4 400.6 808.5 478.3Z" fill="#15416C"/>
</svg>
