<svg width="1035" height="1035" viewBox="0 0 1035 1035" fill="none" xmlns="http://www.w3.org/2000/svg">
<rect width="1035" height="1035" rx="191" fill="white"/>
<path d="M448.1 582.9C440.5 582.1 433 581.1 425.5 579.9L448.1 582.9Z" fill="#15416C"/>
<path d="M807.5 478.3C807.7 484.3 806.8 490.3 804.4 495.7C804.4 495.8 804.3 495.8 804.3 495.8C802.5 500 800.5 503.5 798.6 506.4C798.6 506.4 788.7 521.2 770.1 530.9C727.4 553.2 644.2 534.6 612.6 526.2C578.7 517.3 543.6 505.5 508.7 509.2C502.2 509.9 492.6 504.4 491.2 515.5C490.2 523.1 496.1 528.5 502.5 532.5C515.5 540.6 530.9 537.8 545 540.9C552.4 542.6 564.5 540.7 562.9 552.5C561.7 561.3 551.3 559.5 544.4 559.4C498.5 559 452.5 560.4 406.8 554.3C399.6 553.3 392.3 552.1 385.1 551.8C379.1 551.6 371.4 550.7 369.2 557.8C366.2 567.2 374.2 570 381.2 572.2C398.3 577.7 415.9 580.8 433.6 582.6H434.2C442.2 583.4 450.2 584 458.3 584.4L478.3 585.9L483.8 586.3C487.6 586.6 490.4 589.8 490.1 593.6L490 594V594.1L489.9 594.8C489.6 598.5 486.3 601.4 482.5 601.1L432.3 597.4C431.6 597.4 430.9 597.2 430.3 597C415.8 595.5 401.1 593 386.5 590.3C372.8 587.8 351.1 573.2 346.2 593.8C341.8 612.2 367.5 612.7 381.1 615.5C397.4 618.9 413.9 621.3 430.5 624.1H430.6C430.8 624.1 431.1 624 431.3 624.1L485.8 628.1C489.7 628.4 492.5 631.6 492.2 635.4L492.1 635.6C491.9 639.3 488.5 642.1 484.7 641.8L439 638.5L430.1 637.9C430 637.9 429.7 637.8 429.5 637.8C421.7 637 404.5 635.3 391.7 632.8C369.1 628.4 360.9 622.3 354.6 626.5C352.7 627.9 351.1 630 350.2 633.4C350.2 633.4 348.7 638.2 350.7 644.1C353.4 652 387 660.4 432.9 665.5L487.4 669.4C491.2 669.7 494.1 672.9 493.8 676.7L493.7 676.9C493.5 680.6 490.1 683.5 486.4 683.1C478.8 682.6 472.9 683.1 463.8 682.5C456.9 682.1 450.2 680.8 443.3 680C424.9 677.6 421.9 677.6 411.8 675.9C408.7 675.4 405.6 674.8 402.5 674.4C386.8 671.9 384.1 671.9 381.3 673.3C378.4 674.9 376.8 677.3 375.9 678.8C375.4 680.3 374.8 682.7 375.4 685.4C378.1 697.1 402.3 700.9 411 702.2C519.1 719.2 601.9 703.3 650.4 688C650.6 687.9 650.7 687.9 650.9 687.9C674.5 682.5 697.7 674.4 720.4 664C726.7 661.1 731.5 660.2 735.5 660.2C735.5 660.2 740 660.3 744.4 661.7C747.7 662.8 762.1 668.9 781.7 741.6C782.7 745.3 784.3 751.5 782.1 758.3C779.6 766.2 773 772.6 762.2 777.9C700.4 807.9 631.7 822.9 556.3 822.9C451.4 822.9 370.2 796.4 312.5 743.4C216.7 654.9 224.5 531.6 226.4 517.9C228.3 504.4 235 494.6 235 494.6C235 494.6 244 481.5 262.5 474C285 464.9 374 466.9 495.4 482.1C504 483.2 512.7 483.1 521.3 481.7C538.4 479 572.7 472.5 634.7 456.8C640.4 455.4 645.9 453.4 656.1 447.7C663.4 443.7 674.3 439.3 669.8 428.7C665.4 418.5 656.2 426.8 649.5 428.5C637.8 431.6 626.1 434.7 614.1 436.3L613.9 436.4L574.6 445.1C571.1 445.9 567.7 443.7 567 440.1C566.2 436.5 568.4 433 571.8 432.2L597 426.6L598.6 426.2C614.7 422.5 630.8 418.7 646.8 414.6C658 411.6 669 407.4 679.5 402.7C687.4 399.2 697.1 394.1 693.4 383.3C688.8 370.1 678.8 378 671.4 380.7C653.5 387.1 635.3 392.4 616.8 396.2C616.6 396.3 616.6 396.3 616.4 396.3C616.2 396.5 615.9 396.5 615.6 396.6L570.2 407C566.7 407.8 563.3 405.5 562.5 401.9C561.7 398.4 563.9 394.9 567.4 394.1L574 392.6H574.1L608.9 384.8H609.1C611.1 384.5 612.9 384.2 614.9 383.8C618.4 383.2 621.9 382.3 625.3 381.1C636.2 377.3 647.6 374.7 658.5 370.7C670.8 366.3 691 363.3 686 347C680.3 328.9 662.6 341.9 651.1 345.3C637.9 349.2 624.9 353.3 611.6 355.9C611.3 356.1 611.1 356.1 610.8 356.1L565.3 366.3C561.8 367.1 558.4 364.8 557.7 361.3C557.2 359.2 557.8 357 559.1 355.6C559.9 354.6 561 353.8 562.4 353.5C562.5 353.5 562.5 353.5 562.5 353.4L583.8 348.7L600 345.1L602.2 344.6C611.4 342.5 620.5 340.3 629.5 337.9C641.9 334.5 663.6 333 660.8 318.5C657.2 300.6 637.8 313 626.2 314.5C587.9 319.4 549.7 326.9 511.5 332.6C502.8 334 488.5 339.3 486.9 326.6C485.5 314.8 500.7 316.3 509.5 314C522.5 310.6 536.6 309.7 544.6 296.1C547 291.9 550.2 286.9 546 282.8C543.9 280.7 539 281.3 535.4 281.4C518 282.2 501 284.8 484.7 289.1C453.1 297.6 422.1 318.1 408.3 325.4C363.8 348.8 319.1 372.3 270.8 364.3H270.7C263.9 363.2 260.2 355.6 263.6 349.6C275.2 328.3 289.5 309.3 306.5 292.4C360 239.4 432.8 213 524.8 213C613.8 213 683.2 238.6 733 289.7C779.7 337.9 804.4 400.6 807.5 478.3Z" fill="#15416C"/>
</svg>
